<?xml version="1.0" encoding="utf-8"?>
<!-- Generator: Adobe Illustrator 25.2.1, SVG Export Plug-In . SVG Version: 6.00 Build 0)  -->
<svg version="1.1" id="Layer_1" xmlns="http://www.w3.org/2000/svg" xmlns:xlink="http://www.w3.org/1999/xlink" x="0px" y="0px"
	 viewBox="0 0 207.6 84" style="enable-background:new 0 0 207.6 84;" xml:space="preserve">
<style type="text/css">
	.st0{fill:#007079;}
	.st1{fill:#ABB7C0;}
	.st2{fill:#3C3C3B;}
</style>
<g>
	<path class="st0" d="M31.8,79.5V39.8c0-1.3-0.1-2.5-0.2-3.7c-0.5-3.9-2.3-6.9-5.3-8.8c-2.3-1.4-6.1-2.7-11.3-0.6l-12.4,5l0,0l1,1
		l12-4.8c4.8-1.9,8.2-0.8,10.2,0.5c2.7,1.7,4.3,4.4,4.7,7.9c0.1,1.1,0.2,2.3,0.2,3.5v38.4L31.8,79.5L31.8,79.5z M15.7,28.7L4.1,33.3
		l1,1l11.2-4.5c4-1.6,6.8-0.7,8.4,0.3c2.2,1.4,3.5,3.5,3.8,6.4c0.1,1,0.2,2.1,0.2,3.3v36.5l1.2,1.2V39.8c0-1.2-0.1-2.4-0.2-3.4
		c-0.4-3.3-1.9-5.8-4.4-7.3C23.4,27.9,20.2,26.8,15.7,28.7L15.7,28.7z M16.5,30.5L5.6,34.9l1,1L17,31.7c2.6-1,4.8-1,6.6,0.1
		c2.5,1.5,2.8,4.1,2.9,5c0.1,1,0.2,2,0.2,3v34.4l1.2,1.2V39.8c0-1.1-0.1-2.2-0.2-3.2s-0.5-4-3.4-5.9C22,29.4,19.4,29.3,16.5,30.5
		L16.5,30.5z M17.2,32.4l-10.1,4l1,1l9.6-3.8c2-0.8,3.6-0.8,4.8,0c1.5,0.9,1.8,2.3,1.9,3.4c0.1,0.8,0.2,1.8,0.2,2.8v32.5l1.2,1.2
		V39.8c0-1.1-0.1-2.1-0.2-3c-0.1-0.7-0.3-3-2.5-4.4C21.6,31.5,19.6,31.4,17.2,32.4L17.2,32.4z M18,34.2L8.6,38l1,1l8.8-3.6
		c1.4-0.6,2.3-0.6,3-0.2c0.6,0.4,0.9,0.9,1,2c0.1,0.8,0.1,1.7,0.1,2.6v30.5l1.2,1.2V39.8c0-1-0.1-1.9-0.1-2.8
		c-0.1-1-0.4-2.1-1.6-2.9C21.1,33.5,19.7,33.6,18,34.2L18,34.2z"/>
	<path class="st1" d="M62.5,32l-12.4-5c-5.1-2.1-8.9-0.8-11.1,0.5c-3,1.9-4.8,4.9-5.2,8.6c-0.1,1.1-0.2,2.3-0.2,3.6v39.7l0.7-0.7
		V39.8c0-1.2,0.1-2.4,0.2-3.6c0.4-3.6,2.1-6.4,4.9-8.1c2.1-1.3,5.6-2.4,10.4-0.5l12.2,5L62.5,32L62.5,32L62.5,32z M44.2,13.6
		c0-6.4-5.2-11.7-11.7-11.7c-6.4,0-11.6,5.2-11.6,11.7s5.2,11.7,11.7,11.7C38.9,25.3,44.2,20,44.2,13.6L44.2,13.6z M43.5,13.6
		c0,6-4.9,10.9-10.9,10.9s-10.9-4.9-10.9-10.9S26.6,2.7,32.6,2.7C38.5,2.7,43.5,7.5,43.5,13.6L43.5,13.6z M42.2,13.6
		c0-5.3-4.3-9.7-9.7-9.7s-9.7,4.3-9.7,9.7s4.3,9.7,9.7,9.7S42.2,18.9,42.2,13.6L42.2,13.6z M41.4,13.6c0,4.9-4,8.9-8.9,8.9
		s-8.9-4-8.9-8.9s4-8.9,8.9-8.9C37.5,4.7,41.4,8.7,41.4,13.6L41.4,13.6z M40.2,13.6c0-4.2-3.4-7.7-7.7-7.7s-7.7,3.4-7.7,7.7
		s3.4,7.7,7.7,7.7S40.2,17.8,40.2,13.6L40.2,13.6z M39.5,13.6c0,3.8-3.1,6.9-6.9,6.9s-6.9-3.1-6.9-6.9s3.1-6.9,6.9-6.9
		C36.3,6.7,39.5,9.7,39.5,13.6L39.5,13.6z M38.2,13.6c0-3.1-2.5-5.6-5.6-5.6S27,10.5,27,13.6s2.5,5.6,5.6,5.6S38.2,16.7,38.2,13.6
		L38.2,13.6z M37.4,13.6c0,2.7-2.2,4.9-4.9,4.9s-4.9-2.2-4.9-4.9s2.2-4.9,4.9-4.9C35.2,8.7,37.4,10.9,37.4,13.6L37.4,13.6z
		 M36.2,13.6c0-2-1.6-3.7-3.7-3.7c-2,0-3.7,1.6-3.7,3.7s1.6,3.7,3.7,3.7C34.5,17.3,36.2,15.6,36.2,13.6L36.2,13.6z M35.4,13.6
		c0,1.6-1.3,2.9-2.9,2.9c-1.6,0-2.9-1.3-2.9-2.9s1.3-2.9,2.9-2.9C34.1,10.6,35.4,12,35.4,13.6L35.4,13.6z M35.8,36.4
		c-0.1,1-0.2,2.2-0.2,3.4v37.7l0.7-0.7v-37c0-1.2,0.1-2.3,0.2-3.3c0.3-3,1.6-5.2,3.9-6.6c1.7-1.1,4.6-2,8.6-0.3l11.3,4.6l0.6-0.6
		l-11.6-4.7c-4.4-1.7-7.5-0.8-9.3,0.3C37.6,30.8,36.1,33.2,35.8,36.4L35.8,36.4z M37.8,36.7c-0.1,1-0.2,2-0.2,3.2v35.7l0.7-0.7V39.8
		c0-1.1,0.1-2.1,0.2-3.1c0.1-0.8,0.4-3.5,3-5.1c1.9-1.2,4.2-1.2,6.8-0.2l10.6,4.2l0.6-0.6l-10.8-4.3c-2.9-1.2-5.4-1.1-7.5,0.2
		C38.2,32.8,37.9,35.7,37.8,36.7L37.8,36.7z M39.7,36.9c-0.1,0.9-0.2,1.9-0.2,2.9v33.7l0.7-0.7v-33c0-1,0.1-2,0.2-2.9
		c0.1-1.1,0.5-2.7,2-3.7c1.4-0.8,3-0.8,5,0l9.8,4l0.6-0.6l-10-4.1c-2.3-0.9-4.2-0.9-5.7,0.1C40.3,33.8,39.9,35.6,39.7,36.9
		L39.7,36.9z M41.7,37.1c-0.1,0.8-0.1,1.7-0.1,2.7v31.7l0.7-0.7v-31c0-1,0.1-1.9,0.1-2.7c0.1-1.1,0.5-1.7,1.1-2.1
		c0.7-0.5,1.8-0.4,3.2,0.2l9,3.6l0.6-0.6L47,34.5c-1.7-0.7-2.9-0.7-3.9-0.1C42.3,34.9,41.9,35.7,41.7,37.1L41.7,37.1z"/>
	<path class="st0" d="M203.9,27.7v-2.4c0-1.1-0.5-1.5-1.5-1.5h-9.1v2.5h1.5v13.4h2.9v-6.4h5.1v-2.5h-5.1v-4.5h3
		c0.3,0,0.5,0.2,0.5,0.5v1L203.9,27.7L203.9,27.7z M189,27.7h2.7v-2.4c0-1.1-0.5-1.5-1.5-1.5H181v2.5h1.5v13.4h2.9v-6.4h5.1v-2.5
		h-5.1v-4.5h3c0.3,0,0.5,0.2,0.5,0.5v0.9H189z M179,39.7h1.7v-2.5h-0.3c-0.4,0-0.6-0.1-0.7-0.5l-4.7-13h-3l-4.7,12.9
		c-0.1,0.4-0.3,0.5-0.7,0.5h-0.3v2.5h1.7c1.1,0,1.5-0.3,1.9-1.3l1-2.8h5.4l1,2.8C177.4,39.4,177.8,39.7,179,39.7L179,39.7z
		 M175.4,33.2h-4l1.4-4c0.3-0.8,0.6-2.4,0.6-2.4h0.1c0,0,0.3,1.5,0.6,2.4L175.4,33.2L175.4,33.2z M165.4,27.7h2.6v-2.5
		c0-1.1-0.3-1.4-1.4-1.4h-11.1c-1.1,0-1.4,0.4-1.4,1.4v2.5h2.6v-1c0-0.3,0.2-0.5,0.5-0.5h2.4v13.4h2.9V26.2h2.4
		c0.3,0,0.5,0.2,0.5,0.5V27.7L165.4,27.7z M144.8,27.9c0-1,1-1.7,2.3-1.7c1.1,0,2.1,0.5,2.1,1.2v0.7h2.7v-1.5c0-2.3-2.9-3.2-4.7-3.2
		c-3,0-5.3,1.9-5.3,4.5c0,5,7.5,4.7,7.5,7.4c0,1.2-1.1,1.9-2.3,1.9c-2.2,0-3.8-1.9-3.8-1.9l-1.6,2.1c0,0,2,2.5,5.5,2.5
		c3.3,0,5.3-2.1,5.3-4.7C152.3,30,144.8,30.6,144.8,27.9L144.8,27.9z M139.6,26.2h1v-2.5h-2.9c-1.1,0-1.5,0.5-1.5,1.5v7.3
		c0,0.9,0.2,2.3,0.2,2.3h-0.1c0,0-0.7-1.3-1.3-2.3l-6-8.8h-2.7v12.9c0,0.3-0.2,0.5-0.5,0.5h-1v2.5h2.9c1.1,0,1.5-0.5,1.5-1.5v-7.3
		c0-0.9-0.2-2.3-0.2-2.3h0.1c0,0,0.7,1.4,1.3,2.3l6,8.8h2.6V26.7C139.1,26.4,139.3,26.2,139.6,26.2L139.6,26.2z M123.1,38.1v-2.4
		h-2.7v1c0,0.3-0.2,0.5-0.5,0.5h-3.7c-0.3,0-0.5-0.2-0.5-0.5v-3.8h5.1v-2.5h-5.1v-4.2h3.6c0.3,0,0.5,0.2,0.5,0.5v1h2.7v-2.4
		c0-1.1-0.5-1.5-1.5-1.5h-9.6v2.5h1.5v11.9c0,1.1,0.5,1.5,1.5,1.5h7.2C122.6,39.7,123.1,39.2,123.1,38.1L123.1,38.1z M110.2,38.1
		v-2.4h-2.7v1c0,0.3-0.2,0.5-0.5,0.5h-3.7c-0.3,0-0.5-0.2-0.5-0.5v-3.8h5.1v-2.5h-5.1v-4.2h3.6c0.3,0,0.5,0.2,0.5,0.5v1h2.7v-2.4
		c0-1.1-0.5-1.5-1.5-1.5h-9.6v2.5h1.5v11.9c0,1.1,0.5,1.5,1.5,1.5h7.2C109.7,39.7,110.2,39.2,110.2,38.1L110.2,38.1z M95.9,39.7h1.5
		v-2.5h-0.3c-0.5,0-0.8-0.1-1.1-0.5l-1.5-3c-0.3-0.6-0.8-0.8-0.8-0.8v-0.1c0.7-0.1,2.7-1.3,2.7-4.2c0-3-2-4.8-5-4.8h-7.1v2.4h1.5
		v13.4h2.9v-5.9h1.5c0.8,0,1.2,0.1,1.5,0.7l2,4C94.2,39.5,94.7,39.7,95.9,39.7L95.9,39.7z M93.3,28.7c0,1.6-0.8,2.5-2.4,2.5h-2.3v-5
		H91C92.4,26.2,93.3,27.1,93.3,28.7L93.3,28.7z M80.1,39.7h2.5v-6.8c0-1.1-0.5-1.5-1.5-1.5h-2.6v2.5h1c0.3,0,0.5,0.2,0.5,0.5v1.2
		c0,0-1.5,1.6-4,1.6c-2.8,0-5.2-2.1-5.2-5.6c0-3.2,2.4-5.4,5.1-5.4c2.4,0,4.1,1.4,4.1,1.4l1.6-2.1c0,0-1.9-2-5.8-2
		c-4.6,0-8.1,3.6-8.1,8.1c0,5.1,3.6,8.3,7.7,8.3c3,0,4.7-1.7,4.7-1.7h0.1c0,0,0,0.3,0,0.7L80.1,39.7L80.1,39.7z"/>
	<path class="st1" d="M147,57.7v-1.3h-1.2v0.9c0,0.3-0.2,0.4-0.4,0.4H141c-0.3,0-0.4-0.1-0.4-0.4V46.8c0-0.8-0.3-1.1-1.1-1.1h-1.4
		v1.2h0.8c0.3,0,0.4,0.1,0.4,0.4v10.4c0,0.8,0.3,1.1,1.1,1.1h5.4C146.6,58.8,147,58.5,147,57.7L147,57.7z M136.4,58.8h0.6v-1.2h-0.2
		c-0.3,0-0.6-0.1-0.7-0.4l-4.3-11.6h-1.4l-4.3,11.6c-0.1,0.3-0.3,0.4-0.7,0.4h-0.2v1.2h0.6c1,0,1.2-0.2,1.5-1.1l1.2-3.1h5.2l1.1,3.1
		C135.2,58.7,135.5,58.8,136.4,58.8L136.4,58.8z M133.4,53.5h-4.5l1.7-4.7c0.2-0.6,0.5-1.7,0.5-1.7h0.1c0,0,0.3,1.1,0.5,1.7
		L133.4,53.5L133.4,53.5z M114.1,52.2c0-3.2,2.3-5.5,5.1-5.5c1.5,0,3.7,0.7,3.7,1.9v0.7h1.2v-1.1c0-2-3-2.8-4.9-2.8
		c-3.7,0-6.5,2.9-6.5,6.7s2.7,6.9,6.5,6.9c3.3,0,5.1-2.1,5.1-2.1l-0.7-1c0,0-1.6,1.9-4.3,1.9C116.3,57.8,114.1,55.3,114.1,52.2
		L114.1,52.2z M107.4,58.8h3.8v-1.2H110V46.9h1.2v-1.2h-3.8v1.2h1.2v10.8h-1.2V58.8L107.4,58.8z M105.9,52.2c0-4.1-2.7-6.5-6.6-6.5
		H94v1.2h1.2v10.8c0,0.8,0.3,1.1,1.1,1.1h2.9C103.2,58.8,105.9,56.5,105.9,52.2L105.9,52.2z M104.5,52.2c0,3.5-2.1,5.4-5.4,5.4h-2.2
		c-0.3,0-0.4-0.1-0.4-0.4V46.9h2.6C102.3,46.9,104.5,48.8,104.5,52.2L104.5,52.2z M92.7,57.7v-1.3h-1.2v0.9c0,0.3-0.2,0.4-0.4,0.4
		h-4.6c-0.3,0-0.4-0.1-0.4-0.4v-4.5H91v-1.2h-4.9v-4.8h4.5c0.3,0,0.4,0.1,0.4,0.4v0.9h1.2v-1.3c0-0.8-0.3-1.1-1.1-1.1h-7.5v1.2h1.2
		v10.8c0,0.8,0.3,1.1,1.1,1.1h5.7C92.4,58.8,92.7,58.5,92.7,57.7L92.7,57.7z M81.1,58.8h1.3v-1.2h-0.7c-0.3,0-0.4-0.1-0.4-0.4
		l-0.9-11.6H79l-3.5,7.6c-0.3,0.7-0.6,1.5-0.6,1.5h-0.1c0,0-0.3-0.9-0.7-1.5l-3.5-7.6h-1.2l-0.9,11.6c0,0.3-0.2,0.4-0.4,0.4h-0.7
		v1.2h1.2c0.8,0,1.1-0.3,1.1-1.1l0.6-8c0.1-0.7,0.1-1.9,0.1-1.9h0.1c0,0,0.4,1.2,0.7,1.9l3.1,6.7h1.2l3.1-6.7
		c0.3-0.7,0.7-1.8,0.7-1.8h0.1c0,0,0,1.1,0.1,1.8l0.6,8C80,58.5,80.3,58.8,81.1,58.8L81.1,58.8z"/>
</g>
<g>
	<path class="st2" d="M155.2,44.1h1.2v17.3h-1.2V44.1z"/>
	<path class="st2" d="M165.2,47.2c0-0.3-0.1-0.4-0.4-0.4H164v-1.1h1.4c0.8,0,1.1,0.3,1.1,1.1v7.3c0,2.1,1.4,3.5,3.5,3.5
		s3.5-1.3,3.5-3.5v-7.2c0-0.8,0.3-1.1,1.1-1.1h1.4v1.1h-0.8c-0.3,0-0.4,0.1-0.4,0.4v6.9c0,2.8-1.9,4.6-4.7,4.6
		c-2.8,0-4.8-1.8-4.8-4.6V47.2z"/>
	<path class="st2" d="M178,56c0,0,1.3,1.6,3.3,1.6c1.4,0,2.5-0.9,2.5-2.3c0-3.2-6.3-2.5-6.3-6.5c0-1.8,1.6-3.3,3.9-3.3
		c1.2,0,3.5,0.5,3.5,2.2v0.9h-1.2V48c0-0.8-1.1-1.3-2.2-1.3c-1.7,0-2.6,1-2.6,2.1c0,3,6.3,2.2,6.3,6.5c0,1.9-1.5,3.5-3.9,3.5
		c-2.6,0-4.1-1.8-4.1-1.8L178,56z"/>
</g>
</svg>
